<?xml version="1.0" encoding="UTF-8" standalone="no"?>
<svg width="400" height="600" viewBox="0 0 400 600" fill="none" xmlns="http://www.w3.org/2000/svg">
  <!-- Simple human body outline -->
  <path d="M200 50 C 170 50, 150 70, 150 90 C 150 110, 170 130, 200 130 C 230 130, 250 110, 250 90 C 250 70, 230 50, 200 50 Z" stroke="black" stroke-width="2" fill="white"/>
  
  <!-- Neck -->
  <path d="M180 130 L 180 150 L 220 150 L 220 130" stroke="black" stroke-width="2" fill="white"/>
  
  <!-- Torso -->
  <path d="M160 150 L 140 280 L 150 400 L 250 400 L 260 280 L 240 150" stroke="black" stroke-width="2" fill="white"/>
  
  <!-- Left arm -->
  <path d="M160 150 L 100 250 L 90 350" stroke="black" stroke-width="2" fill="white"/>
  
  <!-- Right arm -->
  <path d="M240 150 L 300 250 L 310 350" stroke="black" stroke-width="2" fill="white"/>
  
  <!-- Left leg -->
  <path d="M150 400 L 140 500 L 150 570" stroke="black" stroke-width="2" fill="white"/>
  
  <!-- Right leg -->
  <path d="M250 400 L 260 500 L 250 570" stroke="black" stroke-width="2" fill="white"/>
  
  <!-- System areas (transparent, will be colored by the overlay) -->
  
  <!-- Head/Neuro area -->
  <circle cx="200" cy="70" r="40" stroke="transparent" fill="transparent"/>
  
  <!-- Cardiac area -->
  <circle cx="200" cy="200" r="40" stroke="transparent" fill="transparent"/>
  
  <!-- Respiratory area -->
  <ellipse cx="200" cy="180" rx="50" ry="30" stroke="transparent" fill="transparent"/>
  
  <!-- GI area -->
  <ellipse cx="200" cy="280" rx="40" ry="50" stroke="transparent" fill="transparent"/>
  
  <!-- MSK area - left arm -->
  <path d="M160 150 L 100 250 L 90 350" stroke="transparent" stroke-width="20" fill="transparent"/>
  
  <!-- MSK area - right arm -->
  <path d="M240 150 L 300 250 L 310 350" stroke="transparent" stroke-width="20" fill="transparent"/>
  
  <!-- MSK area - legs -->
  <path d="M150 400 L 140 500 L 150 570 M 250 400 L 260 500 L 250 570" stroke="transparent" stroke-width="20" fill="transparent"/>
</svg> 